# xmcd CD database file
#
# Track frame offsets:
#	150
#	25561
#	56487
#	76222
#	101344
#	124484
#	156052
#	184166
#
# Disc length: 2679 seconds
#
# Revision: 2
# Processed by: cddbd v1.5.1PL0 Copyright (c) Steve Scherf et al.
# Submitted via: CDex 1.51
#
DISCID=590a7508
DTITLE=Artul Lesicki Acoustic Harmony - An Unbelievable Silence
DYEAR=2004
DGENRE=Jazz
TTITLE0=An Unbelievable Silence
TTITLE1=Yellow
TTITLE2=Filmpom
TTITLE3=London's Break
TTITLE4=Human Error
TTITLE5=Ana Maria
TTITLE6=Little Sunflower
TTITLE7=The End
EXTD=YEAR: 2004
EXTT0=
EXTT1=
EXTT2=
EXTT3=
EXTT4=
EXTT5=
EXTT6=
EXTT7=
PLAYORDER=
